# xmcd
#
# Track frame offsets:
#	150
#	14400
#	29297
#	45337
#	59612
#	73867
#	87042
#	102175
#	120815
#	134052
#
# Disc length: 1990 seconds
#
# Revision: 1
# Processed by: cddbd v1.5.2PL0 Copyright (c) Steve Scherf et al.
# Submitted via: audiograbber 1.83.01
#
DISCID=8007c40a
DTITLE=Kenny Rogers and Dottie West - Classics
DYEAR=1900
DGENRE=
TTITLE0=All I Ever Need Is You
TTITLE1=Til I Can Make It On My Own
TTITLE2=Just The Way You Are
TTITLE3=You Needed Me
TTITLE4=(Hey Won't You Play) Another Somebody Done Somebody Wrong Song
TTITLE5=Together Again
TTITLE6=Midnight Flyer
TTITLE7=You've Lost That Lovin' Feelin'
TTITLE8=Let's Take The Long Way Around The World
TTITLE9=Let It Be Me
EXTD=
EXTT0=
EXTT1=
EXTT2=
EXTT3=
EXTT4=
EXTT5=
EXTT6=
EXTT7=
EXTT8=
EXTT9=
PLAYORDER=
